<svg id="visual" viewBox="0 0 960 540" width="960" height="540" xmlns="http://www.w3.org/2000/svg" xmlns:xlink="http://www.w3.org/1999/xlink" version="1.1"><path d="M0 432L9.3 433.5C18.7 435 37.3 438 56.2 438.3C75 438.7 94 436.3 112.8 434.7C131.7 433 150.3 432 169.2 434.3C188 436.7 207 442.3 225.8 446C244.7 449.7 263.3 451.3 282.2 445.2C301 439 320 425 338.8 423C357.7 421 376.3 431 395.2 434.2C414 437.3 433 433.7 451.8 431.5C470.7 429.3 489.3 428.7 508.2 431C527 433.3 546 438.7 564.8 443C583.7 447.3 602.3 450.7 621.2 448C640 445.3 659 436.7 677.8 430.3C696.7 424 715.3 420 734.2 418.3C753 416.7 772 417.3 790.8 419.2C809.7 421 828.3 424 847.2 426C866 428 885 429 903.8 429.5C922.7 430 941.3 430 950.7 430L960 430L960 541L950.7 541C941.3 541 922.7 541 903.8 541C885 541 866 541 847.2 541C828.3 541 809.7 541 790.8 541C772 541 753 541 734.2 541C715.3 541 696.7 541 677.8 541C659 541 640 541 621.2 541C602.3 541 583.7 541 564.8 541C546 541 527 541 508.2 541C489.3 541 470.7 541 451.8 541C433 541 414 541 395.2 541C376.3 541 357.7 541 338.8 541C320 541 301 541 282.2 541C263.3 541 244.7 541 225.8 541C207 541 188 541 169.2 541C150.3 541 131.7 541 112.8 541C94 541 75 541 56.2 541C37.3 541 18.7 541 9.3 541L0 541Z" fill="#d926a9"></path><path d="M0 466L9.3 463.3C18.7 460.7 37.3 455.3 56.2 454.8C75 454.3 94 458.7 112.8 458.3C131.7 458 150.3 453 169.2 450.2C188 447.3 207 446.7 225.8 444.8C244.7 443 263.3 440 282.2 440.8C301 441.7 320 446.3 338.8 450C357.7 453.7 376.3 456.3 395.2 453.2C414 450 433 441 451.8 439.3C470.7 437.7 489.3 443.3 508.2 447.5C527 451.7 546 454.3 564.8 452.2C583.7 450 602.3 443 621.2 440.2C640 437.3 659 438.7 677.8 442.3C696.7 446 715.3 452 734.2 451.5C753 451 772 444 790.8 440C809.7 436 828.3 435 847.2 435.7C866 436.3 885 438.7 903.8 441.8C922.7 445 941.3 449 950.7 451L960 453L960 541L950.7 541C941.3 541 922.7 541 903.8 541C885 541 866 541 847.2 541C828.3 541 809.7 541 790.8 541C772 541 753 541 734.2 541C715.3 541 696.7 541 677.8 541C659 541 640 541 621.2 541C602.3 541 583.7 541 564.8 541C546 541 527 541 508.2 541C489.3 541 470.7 541 451.8 541C433 541 414 541 395.2 541C376.3 541 357.7 541 338.8 541C320 541 301 541 282.2 541C263.3 541 244.7 541 225.8 541C207 541 188 541 169.2 541C150.3 541 131.7 541 112.8 541C94 541 75 541 56.2 541C37.3 541 18.7 541 9.3 541L0 541Z" fill="#a539a5"></path><path d="M0 455L9.3 456.5C18.7 458 37.3 461 56.2 463.2C75 465.3 94 466.7 112.8 466.3C131.7 466 150.3 464 169.2 460.5C188 457 207 452 225.8 454.3C244.7 456.7 263.3 466.3 282.2 468.7C301 471 320 466 338.8 463C357.7 460 376.3 459 395.2 457.7C414 456.3 433 454.7 451.8 457.2C470.7 459.7 489.3 466.3 508.2 468C527 469.7 546 466.3 564.8 463C583.7 459.7 602.3 456.3 621.2 454.3C640 452.3 659 451.7 677.8 455.2C696.7 458.7 715.3 466.3 734.2 466.5C753 466.7 772 459.3 790.8 455.8C809.7 452.3 828.3 452.7 847.2 451.5C866 450.3 885 447.7 903.8 449.7C922.7 451.7 941.3 458.3 950.7 461.7L960 465L960 541L950.7 541C941.3 541 922.7 541 903.8 541C885 541 866 541 847.2 541C828.3 541 809.7 541 790.8 541C772 541 753 541 734.2 541C715.3 541 696.7 541 677.8 541C659 541 640 541 621.2 541C602.3 541 583.7 541 564.8 541C546 541 527 541 508.2 541C489.3 541 470.7 541 451.8 541C433 541 414 541 395.2 541C376.3 541 357.7 541 338.8 541C320 541 301 541 282.2 541C263.3 541 244.7 541 225.8 541C207 541 188 541 169.2 541C150.3 541 131.7 541 112.8 541C94 541 75 541 56.2 541C37.3 541 18.7 541 9.3 541L0 541Z" fill="#733f96"></path><path d="M0 462L9.3 466C18.7 470 37.3 478 56.2 482.3C75 486.7 94 487.3 112.8 483.7C131.7 480 150.3 472 169.2 471C188 470 207 476 225.8 479.2C244.7 482.3 263.3 482.7 282.2 483.3C301 484 320 485 338.8 482.3C357.7 479.7 376.3 473.3 395.2 470.5C414 467.7 433 468.3 451.8 469.7C470.7 471 489.3 473 508.2 474.5C527 476 546 477 564.8 476.5C583.7 476 602.3 474 621.2 472.3C640 470.7 659 469.3 677.8 472.2C696.7 475 715.3 482 734.2 483.7C753 485.3 772 481.7 790.8 482C809.7 482.3 828.3 486.7 847.2 484.5C866 482.3 885 473.7 903.8 470C922.7 466.3 941.3 467.7 950.7 468.3L960 469L960 541L950.7 541C941.3 541 922.7 541 903.8 541C885 541 866 541 847.2 541C828.3 541 809.7 541 790.8 541C772 541 753 541 734.2 541C715.3 541 696.7 541 677.8 541C659 541 640 541 621.2 541C602.3 541 583.7 541 564.8 541C546 541 527 541 508.2 541C489.3 541 470.7 541 451.8 541C433 541 414 541 395.2 541C376.3 541 357.7 541 338.8 541C320 541 301 541 282.2 541C263.3 541 244.7 541 225.8 541C207 541 188 541 169.2 541C150.3 541 131.7 541 112.8 541C94 541 75 541 56.2 541C37.3 541 18.7 541 9.3 541L0 541Z" fill="#483c7e"></path><path d="M0 491L9.3 489.3C18.7 487.7 37.3 484.3 56.2 482.3C75 480.3 94 479.7 112.8 483C131.7 486.3 150.3 493.7 169.2 496C188 498.3 207 495.7 225.8 492.5C244.7 489.3 263.3 485.7 282.2 483.2C301 480.7 320 479.3 338.8 482C357.7 484.7 376.3 491.3 395.2 493.7C414 496 433 494 451.8 494.2C470.7 494.3 489.3 496.7 508.2 495.3C527 494 546 489 564.8 488.3C583.7 487.7 602.3 491.3 621.2 493.2C640 495 659 495 677.8 494.3C696.7 493.7 715.3 492.3 734.2 490.3C753 488.3 772 485.7 790.8 486.7C809.7 487.7 828.3 492.3 847.2 494.5C866 496.7 885 496.3 903.8 496.7C922.7 497 941.3 498 950.7 498.5L960 499L960 541L950.7 541C941.3 541 922.7 541 903.8 541C885 541 866 541 847.2 541C828.3 541 809.7 541 790.8 541C772 541 753 541 734.2 541C715.3 541 696.7 541 677.8 541C659 541 640 541 621.2 541C602.3 541 583.7 541 564.8 541C546 541 527 541 508.2 541C489.3 541 470.7 541 451.8 541C433 541 414 541 395.2 541C376.3 541 357.7 541 338.8 541C320 541 301 541 282.2 541C263.3 541 244.7 541 225.8 541C207 541 188 541 169.2 541C150.3 541 131.7 541 112.8 541C94 541 75 541 56.2 541C37.3 541 18.7 541 9.3 541L0 541Z" fill="#283360"></path><path d="M0 507L9.3 506.7C18.7 506.3 37.3 505.7 56.2 505.5C75 505.3 94 505.7 112.8 504.3C131.7 503 150.3 500 169.2 498.2C188 496.3 207 495.7 225.8 495.8C244.7 496 263.3 497 282.2 498.7C301 500.3 320 502.7 338.8 505.2C357.7 507.7 376.3 510.3 395.2 508.7C414 507 433 501 451.8 498.5C470.7 496 489.3 497 508.2 498.3C527 499.7 546 501.3 564.8 501C583.7 500.7 602.3 498.3 621.2 497.8C640 497.3 659 498.7 677.8 501.5C696.7 504.3 715.3 508.7 734.2 508.7C753 508.7 772 504.3 790.8 501.8C809.7 499.3 828.3 498.7 847.2 498.8C866 499 885 500 903.8 500.5C922.7 501 941.3 501 950.7 501L960 501L960 541L950.7 541C941.3 541 922.7 541 903.8 541C885 541 866 541 847.2 541C828.3 541 809.7 541 790.8 541C772 541 753 541 734.2 541C715.3 541 696.7 541 677.8 541C659 541 640 541 621.2 541C602.3 541 583.7 541 564.8 541C546 541 527 541 508.2 541C489.3 541 470.7 541 451.8 541C433 541 414 541 395.2 541C376.3 541 357.7 541 338.8 541C320 541 301 541 282.2 541C263.3 541 244.7 541 225.8 541C207 541 188 541 169.2 541C150.3 541 131.7 541 112.8 541C94 541 75 541 56.2 541C37.3 541 18.7 541 9.3 541L0 541Z" fill="#19273f"></path><path d="M0 514L9.3 515.2C18.7 516.3 37.3 518.7 56.2 520.3C75 522 94 523 112.8 522.8C131.7 522.7 150.3 521.3 169.2 519.7C188 518 207 516 225.8 515.5C244.7 515 263.3 516 282.2 517.3C301 518.7 320 520.3 338.8 519.5C357.7 518.7 376.3 515.3 395.2 514.3C414 513.3 433 514.7 451.8 516.8C470.7 519 489.3 522 508.2 521.8C527 521.7 546 518.3 564.8 518.7C583.7 519 602.3 523 621.2 523C640 523 659 519 677.8 518.7C696.7 518.3 715.3 521.7 734.2 521.2C753 520.7 772 516.3 790.8 515.5C809.7 514.7 828.3 517.3 847.2 518.8C866 520.3 885 520.7 903.8 520.7C922.7 520.7 941.3 520.3 950.7 520.2L960 520L960 541L950.7 541C941.3 541 922.7 541 903.8 541C885 541 866 541 847.2 541C828.3 541 809.7 541 790.8 541C772 541 753 541 734.2 541C715.3 541 696.7 541 677.8 541C659 541 640 541 621.2 541C602.3 541 583.7 541 564.8 541C546 541 527 541 508.2 541C489.3 541 470.7 541 451.8 541C433 541 414 541 395.2 541C376.3 541 357.7 541 338.8 541C320 541 301 541 282.2 541C263.3 541 244.7 541 225.8 541C207 541 188 541 169.2 541C150.3 541 131.7 541 112.8 541C94 541 75 541 56.2 541C37.3 541 18.7 541 9.3 541L0 541Z" fill="#15191e"></path></svg>