<svg id="visual" viewBox="0 0 960 540" width="960" height="540" xmlns="http://www.w3.org/2000/svg" xmlns:xlink="http://www.w3.org/1999/xlink" version="1.1"><path d="M0 411L9.3 417.3C18.7 423.7 37.3 436.3 56.2 436.5C75 436.7 94 424.3 112.8 419.8C131.7 415.3 150.3 418.7 169.2 422.5C188 426.3 207 430.7 225.8 430.5C244.7 430.3 263.3 425.7 282.2 427C301 428.3 320 435.7 338.8 440.2C357.7 444.7 376.3 446.3 395.2 444.5C414 442.7 433 437.3 451.8 438C470.7 438.7 489.3 445.3 508.2 444.7C527 444 546 436 564.8 429.3C583.7 422.7 602.3 417.3 621.2 420.5C640 423.7 659 435.3 677.8 438.2C696.7 441 715.3 435 734.2 432.3C753 429.7 772 430.3 790.8 428.5C809.7 426.7 828.3 422.3 847.2 420.7C866 419 885 420 903.8 420.3C922.7 420.7 941.3 420.3 950.7 420.2L960 420L960 541L950.7 541C941.3 541 922.7 541 903.8 541C885 541 866 541 847.2 541C828.3 541 809.7 541 790.8 541C772 541 753 541 734.2 541C715.3 541 696.7 541 677.8 541C659 541 640 541 621.2 541C602.3 541 583.7 541 564.8 541C546 541 527 541 508.2 541C489.3 541 470.7 541 451.8 541C433 541 414 541 395.2 541C376.3 541 357.7 541 338.8 541C320 541 301 541 282.2 541C263.3 541 244.7 541 225.8 541C207 541 188 541 169.2 541C150.3 541 131.7 541 112.8 541C94 541 75 541 56.2 541C37.3 541 18.7 541 9.3 541L0 541Z" fill="#d926a9"></path><path d="M0 465L9.3 461.3C18.7 457.7 37.3 450.3 56.2 447.7C75 445 94 447 112.8 449.7C131.7 452.3 150.3 455.7 169.2 457.8C188 460 207 461 225.8 460.3C244.7 459.7 263.3 457.3 282.2 452.7C301 448 320 441 338.8 439.5C357.7 438 376.3 442 395.2 445C414 448 433 450 451.8 447.3C470.7 444.7 489.3 437.3 508.2 437.3C527 437.3 546 444.7 564.8 448C583.7 451.3 602.3 450.7 621.2 451.8C640 453 659 456 677.8 453C696.7 450 715.3 441 734.2 442.3C753 443.7 772 455.3 790.8 457.2C809.7 459 828.3 451 847.2 449C866 447 885 451 903.8 449.3C922.7 447.7 941.3 440.3 950.7 436.7L960 433L960 541L950.7 541C941.3 541 922.7 541 903.8 541C885 541 866 541 847.2 541C828.3 541 809.7 541 790.8 541C772 541 753 541 734.2 541C715.3 541 696.7 541 677.8 541C659 541 640 541 621.2 541C602.3 541 583.7 541 564.8 541C546 541 527 541 508.2 541C489.3 541 470.7 541 451.8 541C433 541 414 541 395.2 541C376.3 541 357.7 541 338.8 541C320 541 301 541 282.2 541C263.3 541 244.7 541 225.8 541C207 541 188 541 169.2 541C150.3 541 131.7 541 112.8 541C94 541 75 541 56.2 541C37.3 541 18.7 541 9.3 541L0 541Z" fill="#a539a5"></path><path d="M0 450L9.3 454.8C18.7 459.7 37.3 469.3 56.2 470.2C75 471 94 463 112.8 462.7C131.7 462.3 150.3 469.7 169.2 473.5C188 477.3 207 477.7 225.8 474.2C244.7 470.7 263.3 463.3 282.2 459.2C301 455 320 454 338.8 457.3C357.7 460.7 376.3 468.3 395.2 468.3C414 468.3 433 460.7 451.8 457.2C470.7 453.7 489.3 454.3 508.2 453.2C527 452 546 449 564.8 452.5C583.7 456 602.3 466 621.2 466.5C640 467 659 458 677.8 454C696.7 450 715.3 451 734.2 453.8C753 456.7 772 461.3 790.8 465.8C809.7 470.3 828.3 474.7 847.2 474C866 473.3 885 467.7 903.8 462.5C922.7 457.3 941.3 452.7 950.7 450.3L960 448L960 541L950.7 541C941.3 541 922.7 541 903.8 541C885 541 866 541 847.2 541C828.3 541 809.7 541 790.8 541C772 541 753 541 734.2 541C715.3 541 696.7 541 677.8 541C659 541 640 541 621.2 541C602.3 541 583.7 541 564.8 541C546 541 527 541 508.2 541C489.3 541 470.7 541 451.8 541C433 541 414 541 395.2 541C376.3 541 357.7 541 338.8 541C320 541 301 541 282.2 541C263.3 541 244.7 541 225.8 541C207 541 188 541 169.2 541C150.3 541 131.7 541 112.8 541C94 541 75 541 56.2 541C37.3 541 18.7 541 9.3 541L0 541Z" fill="#733f96"></path><path d="M0 482L9.3 481.2C18.7 480.3 37.3 478.7 56.2 478.5C75 478.3 94 479.7 112.8 481.2C131.7 482.7 150.3 484.3 169.2 483.8C188 483.3 207 480.7 225.8 476.7C244.7 472.7 263.3 467.3 282.2 464.7C301 462 320 462 338.8 466C357.7 470 376.3 478 395.2 479.3C414 480.7 433 475.3 451.8 473.2C470.7 471 489.3 472 508.2 474.2C527 476.3 546 479.7 564.8 482C583.7 484.3 602.3 485.7 621.2 483.5C640 481.3 659 475.7 677.8 476.2C696.7 476.7 715.3 483.3 734.2 486.7C753 490 772 490 790.8 488.7C809.7 487.3 828.3 484.7 847.2 482C866 479.3 885 476.7 903.8 474.2C922.7 471.7 941.3 469.3 950.7 468.2L960 467L960 541L950.7 541C941.3 541 922.7 541 903.8 541C885 541 866 541 847.2 541C828.3 541 809.7 541 790.8 541C772 541 753 541 734.2 541C715.3 541 696.7 541 677.8 541C659 541 640 541 621.2 541C602.3 541 583.7 541 564.8 541C546 541 527 541 508.2 541C489.3 541 470.7 541 451.8 541C433 541 414 541 395.2 541C376.3 541 357.7 541 338.8 541C320 541 301 541 282.2 541C263.3 541 244.7 541 225.8 541C207 541 188 541 169.2 541C150.3 541 131.7 541 112.8 541C94 541 75 541 56.2 541C37.3 541 18.7 541 9.3 541L0 541Z" fill="#483c7e"></path><path d="M0 500L9.3 498C18.7 496 37.3 492 56.2 488.3C75 484.7 94 481.3 112.8 482.3C131.7 483.3 150.3 488.7 169.2 491.7C188 494.7 207 495.3 225.8 495.5C244.7 495.7 263.3 495.3 282.2 493.7C301 492 320 489 338.8 487.3C357.7 485.7 376.3 485.3 395.2 487C414 488.7 433 492.3 451.8 491.2C470.7 490 489.3 484 508.2 481C527 478 546 478 564.8 478.3C583.7 478.7 602.3 479.3 621.2 480C640 480.7 659 481.3 677.8 482.2C696.7 483 715.3 484 734.2 483.3C753 482.7 772 480.3 790.8 482.5C809.7 484.7 828.3 491.3 847.2 491.8C866 492.3 885 486.7 903.8 483.7C922.7 480.7 941.3 480.3 950.7 480.2L960 480L960 541L950.7 541C941.3 541 922.7 541 903.8 541C885 541 866 541 847.2 541C828.3 541 809.7 541 790.8 541C772 541 753 541 734.2 541C715.3 541 696.7 541 677.8 541C659 541 640 541 621.2 541C602.3 541 583.7 541 564.8 541C546 541 527 541 508.2 541C489.3 541 470.7 541 451.8 541C433 541 414 541 395.2 541C376.3 541 357.7 541 338.8 541C320 541 301 541 282.2 541C263.3 541 244.7 541 225.8 541C207 541 188 541 169.2 541C150.3 541 131.7 541 112.8 541C94 541 75 541 56.2 541C37.3 541 18.7 541 9.3 541L0 541Z" fill="#283360"></path><path d="M0 495L9.3 497.5C18.7 500 37.3 505 56.2 508.2C75 511.3 94 512.7 112.8 512.7C131.7 512.7 150.3 511.3 169.2 511C188 510.7 207 511.3 225.8 510.2C244.7 509 263.3 506 282.2 505.8C301 505.7 320 508.3 338.8 509.2C357.7 510 376.3 509 395.2 509C414 509 433 510 451.8 508.3C470.7 506.7 489.3 502.3 508.2 499.5C527 496.7 546 495.3 564.8 497.7C583.7 500 602.3 506 621.2 507.2C640 508.3 659 504.7 677.8 503.8C696.7 503 715.3 505 734.2 507C753 509 772 511 790.8 512.2C809.7 513.3 828.3 513.7 847.2 511.8C866 510 885 506 903.8 506.2C922.7 506.3 941.3 510.7 950.7 512.8L960 515L960 541L950.7 541C941.3 541 922.7 541 903.8 541C885 541 866 541 847.2 541C828.3 541 809.7 541 790.8 541C772 541 753 541 734.2 541C715.3 541 696.7 541 677.8 541C659 541 640 541 621.2 541C602.3 541 583.7 541 564.8 541C546 541 527 541 508.2 541C489.3 541 470.7 541 451.8 541C433 541 414 541 395.2 541C376.3 541 357.7 541 338.8 541C320 541 301 541 282.2 541C263.3 541 244.7 541 225.8 541C207 541 188 541 169.2 541C150.3 541 131.7 541 112.8 541C94 541 75 541 56.2 541C37.3 541 18.7 541 9.3 541L0 541Z" fill="#19273f"></path><path d="M0 522L9.3 522.3C18.7 522.7 37.3 523.3 56.2 523.7C75 524 94 524 112.8 522.2C131.7 520.3 150.3 516.7 169.2 515.5C188 514.3 207 515.7 225.8 516.8C244.7 518 263.3 519 282.2 519.7C301 520.3 320 520.7 338.8 521.3C357.7 522 376.3 523 395.2 521.3C414 519.7 433 515.3 451.8 515.3C470.7 515.3 489.3 519.7 508.2 519.8C527 520 546 516 564.8 515.2C583.7 514.3 602.3 516.7 621.2 518.2C640 519.7 659 520.3 677.8 519.8C696.7 519.3 715.3 517.7 734.2 517.5C753 517.3 772 518.7 790.8 519C809.7 519.3 828.3 518.7 847.2 517.8C866 517 885 516 903.8 516.5C922.7 517 941.3 519 950.7 520L960 521L960 541L950.7 541C941.3 541 922.7 541 903.8 541C885 541 866 541 847.2 541C828.3 541 809.7 541 790.8 541C772 541 753 541 734.2 541C715.3 541 696.7 541 677.8 541C659 541 640 541 621.2 541C602.3 541 583.7 541 564.8 541C546 541 527 541 508.2 541C489.3 541 470.7 541 451.8 541C433 541 414 541 395.2 541C376.3 541 357.7 541 338.8 541C320 541 301 541 282.2 541C263.3 541 244.7 541 225.8 541C207 541 188 541 169.2 541C150.3 541 131.7 541 112.8 541C94 541 75 541 56.2 541C37.3 541 18.7 541 9.3 541L0 541Z" fill="#15191e"></path></svg>