<svg id="visual" viewBox="0 0 960 540" width="960" height="540" xmlns="http://www.w3.org/2000/svg" xmlns:xlink="http://www.w3.org/1999/xlink" version="1.1"><path d="M0 433L9.3 436.2C18.7 439.3 37.3 445.7 56.2 446.7C75 447.7 94 443.3 112.8 441.7C131.7 440 150.3 441 169.2 441.3C188 441.7 207 441.3 225.8 443.5C244.7 445.7 263.3 450.3 282.2 451.5C301 452.7 320 450.3 338.8 443.8C357.7 437.3 376.3 426.7 395.2 423.8C414 421 433 426 451.8 429.7C470.7 433.3 489.3 435.7 508.2 438.8C527 442 546 446 564.8 444.5C583.7 443 602.3 436 621.2 436C640 436 659 443 677.8 444.2C696.7 445.3 715.3 440.7 734.2 439.7C753 438.7 772 441.3 790.8 442.5C809.7 443.7 828.3 443.3 847.2 438.5C866 433.7 885 424.3 903.8 419.3C922.7 414.3 941.3 413.7 950.7 413.3L960 413L960 541L950.7 541C941.3 541 922.7 541 903.8 541C885 541 866 541 847.2 541C828.3 541 809.7 541 790.8 541C772 541 753 541 734.2 541C715.3 541 696.7 541 677.8 541C659 541 640 541 621.2 541C602.3 541 583.7 541 564.8 541C546 541 527 541 508.2 541C489.3 541 470.7 541 451.8 541C433 541 414 541 395.2 541C376.3 541 357.7 541 338.8 541C320 541 301 541 282.2 541C263.3 541 244.7 541 225.8 541C207 541 188 541 169.2 541C150.3 541 131.7 541 112.8 541C94 541 75 541 56.2 541C37.3 541 18.7 541 9.3 541L0 541Z" fill="#d926a9"></path><path d="M0 430L9.3 434.8C18.7 439.7 37.3 449.3 56.2 454.3C75 459.3 94 459.7 112.8 457.8C131.7 456 150.3 452 169.2 448.7C188 445.3 207 442.7 225.8 441.7C244.7 440.7 263.3 441.3 282.2 442.7C301 444 320 446 338.8 447.7C357.7 449.3 376.3 450.7 395.2 448.3C414 446 433 440 451.8 437.3C470.7 434.7 489.3 435.3 508.2 435.3C527 435.3 546 434.7 564.8 437C583.7 439.3 602.3 444.7 621.2 447C640 449.3 659 448.7 677.8 447.5C696.7 446.3 715.3 444.7 734.2 447.8C753 451 772 459 790.8 459.8C809.7 460.7 828.3 454.3 847.2 450.5C866 446.7 885 445.3 903.8 442.7C922.7 440 941.3 436 950.7 434L960 432L960 541L950.7 541C941.3 541 922.7 541 903.8 541C885 541 866 541 847.2 541C828.3 541 809.7 541 790.8 541C772 541 753 541 734.2 541C715.3 541 696.7 541 677.8 541C659 541 640 541 621.2 541C602.3 541 583.7 541 564.8 541C546 541 527 541 508.2 541C489.3 541 470.7 541 451.8 541C433 541 414 541 395.2 541C376.3 541 357.7 541 338.8 541C320 541 301 541 282.2 541C263.3 541 244.7 541 225.8 541C207 541 188 541 169.2 541C150.3 541 131.7 541 112.8 541C94 541 75 541 56.2 541C37.3 541 18.7 541 9.3 541L0 541Z" fill="#a539a5"></path><path d="M0 455L9.3 455.3C18.7 455.7 37.3 456.3 56.2 455.7C75 455 94 453 112.8 453C131.7 453 150.3 455 169.2 457.7C188 460.3 207 463.7 225.8 465.5C244.7 467.3 263.3 467.7 282.2 465.7C301 463.7 320 459.3 338.8 455.3C357.7 451.3 376.3 447.7 395.2 447.3C414 447 433 450 451.8 453.7C470.7 457.3 489.3 461.7 508.2 463.3C527 465 546 464 564.8 462C583.7 460 602.3 457 621.2 459.3C640 461.7 659 469.3 677.8 471.2C696.7 473 715.3 469 734.2 467.2C753 465.3 772 465.7 790.8 462.7C809.7 459.7 828.3 453.3 847.2 450C866 446.7 885 446.3 903.8 448.2C922.7 450 941.3 454 950.7 456L960 458L960 541L950.7 541C941.3 541 922.7 541 903.8 541C885 541 866 541 847.2 541C828.3 541 809.7 541 790.8 541C772 541 753 541 734.2 541C715.3 541 696.7 541 677.8 541C659 541 640 541 621.2 541C602.3 541 583.7 541 564.8 541C546 541 527 541 508.2 541C489.3 541 470.7 541 451.8 541C433 541 414 541 395.2 541C376.3 541 357.7 541 338.8 541C320 541 301 541 282.2 541C263.3 541 244.7 541 225.8 541C207 541 188 541 169.2 541C150.3 541 131.7 541 112.8 541C94 541 75 541 56.2 541C37.3 541 18.7 541 9.3 541L0 541Z" fill="#733f96"></path><path d="M0 474L9.3 474C18.7 474 37.3 474 56.2 476.8C75 479.7 94 485.3 112.8 486.2C131.7 487 150.3 483 169.2 481.3C188 479.7 207 480.3 225.8 479.3C244.7 478.3 263.3 475.7 282.2 476.8C301 478 320 483 338.8 484.8C357.7 486.7 376.3 485.3 395.2 481.8C414 478.3 433 472.7 451.8 468.8C470.7 465 489.3 463 508.2 464.7C527 466.3 546 471.7 564.8 476.7C583.7 481.7 602.3 486.3 621.2 484.8C640 483.3 659 475.7 677.8 475.3C696.7 475 715.3 482 734.2 482.7C753 483.3 772 477.7 790.8 475.3C809.7 473 828.3 474 847.2 474.3C866 474.7 885 474.3 903.8 472.7C922.7 471 941.3 468 950.7 466.5L960 465L960 541L950.7 541C941.3 541 922.7 541 903.8 541C885 541 866 541 847.2 541C828.3 541 809.7 541 790.8 541C772 541 753 541 734.2 541C715.3 541 696.7 541 677.8 541C659 541 640 541 621.2 541C602.3 541 583.7 541 564.8 541C546 541 527 541 508.2 541C489.3 541 470.7 541 451.8 541C433 541 414 541 395.2 541C376.3 541 357.7 541 338.8 541C320 541 301 541 282.2 541C263.3 541 244.7 541 225.8 541C207 541 188 541 169.2 541C150.3 541 131.7 541 112.8 541C94 541 75 541 56.2 541C37.3 541 18.7 541 9.3 541L0 541Z" fill="#483c7e"></path><path d="M0 490L9.3 491.7C18.7 493.3 37.3 496.7 56.2 496.5C75 496.3 94 492.7 112.8 491.5C131.7 490.3 150.3 491.7 169.2 491.5C188 491.3 207 489.7 225.8 490.7C244.7 491.7 263.3 495.3 282.2 495.7C301 496 320 493 338.8 491.3C357.7 489.7 376.3 489.3 395.2 491.3C414 493.3 433 497.7 451.8 496.7C470.7 495.7 489.3 489.3 508.2 488.2C527 487 546 491 564.8 493.7C583.7 496.3 602.3 497.7 621.2 495.5C640 493.3 659 487.7 677.8 486C696.7 484.3 715.3 486.7 734.2 488C753 489.3 772 489.7 790.8 490.5C809.7 491.3 828.3 492.7 847.2 494.8C866 497 885 500 903.8 499.8C922.7 499.7 941.3 496.3 950.7 494.7L960 493L960 541L950.7 541C941.3 541 922.7 541 903.8 541C885 541 866 541 847.2 541C828.3 541 809.7 541 790.8 541C772 541 753 541 734.2 541C715.3 541 696.7 541 677.8 541C659 541 640 541 621.2 541C602.3 541 583.7 541 564.8 541C546 541 527 541 508.2 541C489.3 541 470.7 541 451.8 541C433 541 414 541 395.2 541C376.3 541 357.7 541 338.8 541C320 541 301 541 282.2 541C263.3 541 244.7 541 225.8 541C207 541 188 541 169.2 541C150.3 541 131.7 541 112.8 541C94 541 75 541 56.2 541C37.3 541 18.7 541 9.3 541L0 541Z" fill="#283360"></path><path d="M0 497L9.3 497C18.7 497 37.3 497 56.2 497C75 497 94 497 112.8 498.7C131.7 500.3 150.3 503.7 169.2 504C188 504.3 207 501.7 225.8 499.8C244.7 498 263.3 497 282.2 497.2C301 497.3 320 498.7 338.8 499.2C357.7 499.7 376.3 499.3 395.2 498.7C414 498 433 497 451.8 496.8C470.7 496.7 489.3 497.3 508.2 498.8C527 500.3 546 502.7 564.8 502.5C583.7 502.3 602.3 499.7 621.2 501C640 502.3 659 507.7 677.8 508.8C696.7 510 715.3 507 734.2 505.5C753 504 772 504 790.8 505.5C809.7 507 828.3 510 847.2 508.7C866 507.3 885 501.7 903.8 498.5C922.7 495.3 941.3 494.7 950.7 494.3L960 494L960 541L950.7 541C941.3 541 922.7 541 903.8 541C885 541 866 541 847.2 541C828.3 541 809.7 541 790.8 541C772 541 753 541 734.2 541C715.3 541 696.7 541 677.8 541C659 541 640 541 621.2 541C602.3 541 583.7 541 564.8 541C546 541 527 541 508.2 541C489.3 541 470.7 541 451.8 541C433 541 414 541 395.2 541C376.3 541 357.7 541 338.8 541C320 541 301 541 282.2 541C263.3 541 244.7 541 225.8 541C207 541 188 541 169.2 541C150.3 541 131.7 541 112.8 541C94 541 75 541 56.2 541C37.3 541 18.7 541 9.3 541L0 541Z" fill="#19273f"></path><path d="M0 514L9.3 514.3C18.7 514.7 37.3 515.3 56.2 515.8C75 516.3 94 516.7 112.8 516.2C131.7 515.7 150.3 514.3 169.2 513.8C188 513.3 207 513.7 225.8 514.7C244.7 515.7 263.3 517.3 282.2 519C301 520.7 320 522.3 338.8 523C357.7 523.7 376.3 523.3 395.2 522C414 520.7 433 518.3 451.8 516.8C470.7 515.3 489.3 514.7 508.2 516C527 517.3 546 520.7 564.8 520.2C583.7 519.7 602.3 515.3 621.2 514.8C640 514.3 659 517.7 677.8 519.3C696.7 521 715.3 521 734.2 519.8C753 518.7 772 516.3 790.8 516.8C809.7 517.3 828.3 520.7 847.2 521.3C866 522 885 520 903.8 518.7C922.7 517.3 941.3 516.7 950.7 516.3L960 516L960 541L950.7 541C941.3 541 922.7 541 903.8 541C885 541 866 541 847.2 541C828.3 541 809.7 541 790.8 541C772 541 753 541 734.2 541C715.3 541 696.7 541 677.8 541C659 541 640 541 621.2 541C602.3 541 583.7 541 564.8 541C546 541 527 541 508.2 541C489.3 541 470.7 541 451.8 541C433 541 414 541 395.2 541C376.3 541 357.7 541 338.8 541C320 541 301 541 282.2 541C263.3 541 244.7 541 225.8 541C207 541 188 541 169.2 541C150.3 541 131.7 541 112.8 541C94 541 75 541 56.2 541C37.3 541 18.7 541 9.3 541L0 541Z" fill="#15191e"></path></svg>