<svg id="visual" viewBox="0 0 960 540" width="960" height="540" xmlns="http://www.w3.org/2000/svg" xmlns:xlink="http://www.w3.org/1999/xlink" version="1.1"><path d="M0 434L9.3 430.8C18.7 427.7 37.3 421.3 56.2 422.2C75 423 94 431 112.8 435.7C131.7 440.3 150.3 441.7 169.2 444C188 446.3 207 449.7 225.8 451.8C244.7 454 263.3 455 282.2 450.8C301 446.7 320 437.3 338.8 434.5C357.7 431.7 376.3 435.3 395.2 438.5C414 441.7 433 444.3 451.8 440.3C470.7 436.3 489.3 425.7 508.2 426.5C527 427.3 546 439.7 564.8 445.5C583.7 451.3 602.3 450.7 621.2 449.3C640 448 659 446 677.8 442.5C696.7 439 715.3 434 734.2 432.3C753 430.7 772 432.3 790.8 436.3C809.7 440.3 828.3 446.7 847.2 449.5C866 452.3 885 451.7 903.8 452C922.7 452.3 941.3 453.7 950.7 454.3L960 455L960 541L950.7 541C941.3 541 922.7 541 903.8 541C885 541 866 541 847.2 541C828.3 541 809.7 541 790.8 541C772 541 753 541 734.2 541C715.3 541 696.7 541 677.8 541C659 541 640 541 621.2 541C602.3 541 583.7 541 564.8 541C546 541 527 541 508.2 541C489.3 541 470.7 541 451.8 541C433 541 414 541 395.2 541C376.3 541 357.7 541 338.8 541C320 541 301 541 282.2 541C263.3 541 244.7 541 225.8 541C207 541 188 541 169.2 541C150.3 541 131.7 541 112.8 541C94 541 75 541 56.2 541C37.3 541 18.7 541 9.3 541L0 541Z" fill="#d926a9"></path><path d="M0 457L9.3 453.8C18.7 450.7 37.3 444.3 56.2 442.7C75 441 94 444 112.8 445.8C131.7 447.7 150.3 448.3 169.2 447.8C188 447.3 207 445.7 225.8 444.3C244.7 443 263.3 442 282.2 440.2C301 438.3 320 435.7 338.8 439.8C357.7 444 376.3 455 395.2 458.2C414 461.3 433 456.7 451.8 450.8C470.7 445 489.3 438 508.2 439.5C527 441 546 451 564.8 454.3C583.7 457.7 602.3 454.3 621.2 454.2C640 454 659 457 677.8 453.5C696.7 450 715.3 440 734.2 440C753 440 772 450 790.8 454.5C809.7 459 828.3 458 847.2 453.3C866 448.7 885 440.3 903.8 442.2C922.7 444 941.3 456 950.7 462L960 468L960 541L950.7 541C941.3 541 922.7 541 903.8 541C885 541 866 541 847.2 541C828.3 541 809.7 541 790.8 541C772 541 753 541 734.2 541C715.3 541 696.7 541 677.8 541C659 541 640 541 621.2 541C602.3 541 583.7 541 564.8 541C546 541 527 541 508.2 541C489.3 541 470.7 541 451.8 541C433 541 414 541 395.2 541C376.3 541 357.7 541 338.8 541C320 541 301 541 282.2 541C263.3 541 244.7 541 225.8 541C207 541 188 541 169.2 541C150.3 541 131.7 541 112.8 541C94 541 75 541 56.2 541C37.3 541 18.7 541 9.3 541L0 541Z" fill="#a539a5"></path><path d="M0 477L9.3 472.7C18.7 468.3 37.3 459.7 56.2 456C75 452.3 94 453.7 112.8 457.5C131.7 461.3 150.3 467.7 169.2 468.3C188 469 207 464 225.8 461.7C244.7 459.3 263.3 459.7 282.2 460.8C301 462 320 464 338.8 462.8C357.7 461.7 376.3 457.3 395.2 458.5C414 459.7 433 466.3 451.8 470C470.7 473.7 489.3 474.3 508.2 470.3C527 466.3 546 457.7 564.8 456.2C583.7 454.7 602.3 460.3 621.2 461.5C640 462.7 659 459.3 677.8 456.5C696.7 453.7 715.3 451.3 734.2 449.5C753 447.7 772 446.3 790.8 447.5C809.7 448.7 828.3 452.3 847.2 455.2C866 458 885 460 903.8 461.2C922.7 462.3 941.3 462.7 950.7 462.8L960 463L960 541L950.7 541C941.3 541 922.7 541 903.8 541C885 541 866 541 847.2 541C828.3 541 809.7 541 790.8 541C772 541 753 541 734.2 541C715.3 541 696.7 541 677.8 541C659 541 640 541 621.2 541C602.3 541 583.7 541 564.8 541C546 541 527 541 508.2 541C489.3 541 470.7 541 451.8 541C433 541 414 541 395.2 541C376.3 541 357.7 541 338.8 541C320 541 301 541 282.2 541C263.3 541 244.7 541 225.8 541C207 541 188 541 169.2 541C150.3 541 131.7 541 112.8 541C94 541 75 541 56.2 541C37.3 541 18.7 541 9.3 541L0 541Z" fill="#733f96"></path><path d="M0 461L9.3 465.7C18.7 470.3 37.3 479.7 56.2 484.2C75 488.7 94 488.3 112.8 487.3C131.7 486.3 150.3 484.7 169.2 483.3C188 482 207 481 225.8 480.2C244.7 479.3 263.3 478.7 282.2 475.5C301 472.3 320 466.7 338.8 466C357.7 465.3 376.3 469.7 395.2 472C414 474.3 433 474.7 451.8 473.5C470.7 472.3 489.3 469.7 508.2 470.3C527 471 546 475 564.8 477C583.7 479 602.3 479 621.2 477.8C640 476.7 659 474.3 677.8 475C696.7 475.7 715.3 479.3 734.2 479.5C753 479.7 772 476.3 790.8 474.8C809.7 473.3 828.3 473.7 847.2 472.8C866 472 885 470 903.8 469.2C922.7 468.3 941.3 468.7 950.7 468.8L960 469L960 541L950.7 541C941.3 541 922.7 541 903.8 541C885 541 866 541 847.2 541C828.3 541 809.7 541 790.8 541C772 541 753 541 734.2 541C715.3 541 696.7 541 677.8 541C659 541 640 541 621.2 541C602.3 541 583.7 541 564.8 541C546 541 527 541 508.2 541C489.3 541 470.7 541 451.8 541C433 541 414 541 395.2 541C376.3 541 357.7 541 338.8 541C320 541 301 541 282.2 541C263.3 541 244.7 541 225.8 541C207 541 188 541 169.2 541C150.3 541 131.7 541 112.8 541C94 541 75 541 56.2 541C37.3 541 18.7 541 9.3 541L0 541Z" fill="#483c7e"></path><path d="M0 491L9.3 492C18.7 493 37.3 495 56.2 496.3C75 497.7 94 498.3 112.8 499.2C131.7 500 150.3 501 169.2 501C188 501 207 500 225.8 496.8C244.7 493.7 263.3 488.3 282.2 489C301 489.7 320 496.3 338.8 497.2C357.7 498 376.3 493 395.2 489.5C414 486 433 484 451.8 484C470.7 484 489.3 486 508.2 486.5C527 487 546 486 564.8 487.7C583.7 489.3 602.3 493.7 621.2 494.5C640 495.3 659 492.7 677.8 491C696.7 489.3 715.3 488.7 734.2 487.3C753 486 772 484 790.8 483C809.7 482 828.3 482 847.2 485.5C866 489 885 496 903.8 497.3C922.7 498.7 941.3 494.3 950.7 492.2L960 490L960 541L950.7 541C941.3 541 922.7 541 903.8 541C885 541 866 541 847.2 541C828.3 541 809.7 541 790.8 541C772 541 753 541 734.2 541C715.3 541 696.7 541 677.8 541C659 541 640 541 621.2 541C602.3 541 583.7 541 564.8 541C546 541 527 541 508.2 541C489.3 541 470.7 541 451.8 541C433 541 414 541 395.2 541C376.3 541 357.7 541 338.8 541C320 541 301 541 282.2 541C263.3 541 244.7 541 225.8 541C207 541 188 541 169.2 541C150.3 541 131.7 541 112.8 541C94 541 75 541 56.2 541C37.3 541 18.7 541 9.3 541L0 541Z" fill="#283360"></path><path d="M0 511L9.3 508.2C18.7 505.3 37.3 499.7 56.2 499.3C75 499 94 504 112.8 504.5C131.7 505 150.3 501 169.2 501.3C188 501.7 207 506.3 225.8 506.2C244.7 506 263.3 501 282.2 501.3C301 501.7 320 507.3 338.8 508.7C357.7 510 376.3 507 395.2 505.7C414 504.3 433 504.7 451.8 504.3C470.7 504 489.3 503 508.2 504.3C527 505.7 546 509.3 564.8 511.2C583.7 513 602.3 513 621.2 510.7C640 508.3 659 503.7 677.8 501C696.7 498.3 715.3 497.7 734.2 499.2C753 500.7 772 504.3 790.8 505.3C809.7 506.3 828.3 504.7 847.2 505.8C866 507 885 511 903.8 511.5C922.7 512 941.3 509 950.7 507.5L960 506L960 541L950.7 541C941.3 541 922.7 541 903.8 541C885 541 866 541 847.2 541C828.3 541 809.7 541 790.8 541C772 541 753 541 734.2 541C715.3 541 696.7 541 677.8 541C659 541 640 541 621.2 541C602.3 541 583.7 541 564.8 541C546 541 527 541 508.2 541C489.3 541 470.7 541 451.8 541C433 541 414 541 395.2 541C376.3 541 357.7 541 338.8 541C320 541 301 541 282.2 541C263.3 541 244.7 541 225.8 541C207 541 188 541 169.2 541C150.3 541 131.7 541 112.8 541C94 541 75 541 56.2 541C37.3 541 18.7 541 9.3 541L0 541Z" fill="#19273f"></path><path d="M0 514L9.3 514C18.7 514 37.3 514 56.2 515.8C75 517.7 94 521.3 112.8 522.2C131.7 523 150.3 521 169.2 519C188 517 207 515 225.8 514C244.7 513 263.3 513 282.2 514.3C301 515.7 320 518.3 338.8 519.3C357.7 520.3 376.3 519.7 395.2 518.8C414 518 433 517 451.8 516.3C470.7 515.7 489.3 515.3 508.2 515.3C527 515.3 546 515.7 564.8 517.5C583.7 519.3 602.3 522.7 621.2 522.7C640 522.7 659 519.3 677.8 518.3C696.7 517.3 715.3 518.7 734.2 519.7C753 520.7 772 521.3 790.8 520.3C809.7 519.3 828.3 516.7 847.2 517C866 517.3 885 520.7 903.8 522.8C922.7 525 941.3 526 950.7 526.5L960 527L960 541L950.7 541C941.3 541 922.7 541 903.8 541C885 541 866 541 847.2 541C828.3 541 809.7 541 790.8 541C772 541 753 541 734.2 541C715.3 541 696.7 541 677.8 541C659 541 640 541 621.2 541C602.3 541 583.7 541 564.8 541C546 541 527 541 508.2 541C489.3 541 470.7 541 451.8 541C433 541 414 541 395.2 541C376.3 541 357.7 541 338.8 541C320 541 301 541 282.2 541C263.3 541 244.7 541 225.8 541C207 541 188 541 169.2 541C150.3 541 131.7 541 112.8 541C94 541 75 541 56.2 541C37.3 541 18.7 541 9.3 541L0 541Z" fill="#15191e"></path></svg>