<svg id="visual" viewBox="0 0 960 540" width="960" height="540" xmlns="http://www.w3.org/2000/svg" xmlns:xlink="http://www.w3.org/1999/xlink" version="1.1"><path d="M0 456L9.3 451.2C18.7 446.3 37.3 436.7 56.2 430C75 423.3 94 419.7 112.8 419.7C131.7 419.7 150.3 423.3 169.2 427.5C188 431.7 207 436.3 225.8 441C244.7 445.7 263.3 450.3 282.2 451C301 451.7 320 448.3 338.8 444.7C357.7 441 376.3 437 395.2 435.3C414 433.7 433 434.3 451.8 435.8C470.7 437.3 489.3 439.7 508.2 440.7C527 441.7 546 441.3 564.8 439.7C583.7 438 602.3 435 621.2 436C640 437 659 442 677.8 445.5C696.7 449 715.3 451 734.2 447.7C753 444.3 772 435.7 790.8 433.8C809.7 432 828.3 437 847.2 441.5C866 446 885 450 903.8 446.2C922.7 442.3 941.3 430.7 950.7 424.8L960 419L960 541L950.7 541C941.3 541 922.7 541 903.8 541C885 541 866 541 847.2 541C828.3 541 809.7 541 790.8 541C772 541 753 541 734.2 541C715.3 541 696.7 541 677.8 541C659 541 640 541 621.2 541C602.3 541 583.7 541 564.8 541C546 541 527 541 508.2 541C489.3 541 470.7 541 451.8 541C433 541 414 541 395.2 541C376.3 541 357.7 541 338.8 541C320 541 301 541 282.2 541C263.3 541 244.7 541 225.8 541C207 541 188 541 169.2 541C150.3 541 131.7 541 112.8 541C94 541 75 541 56.2 541C37.3 541 18.7 541 9.3 541L0 541Z" fill="#d926a9"></path><path d="M0 443L9.3 444.5C18.7 446 37.3 449 56.2 449.7C75 450.3 94 448.7 112.8 445.5C131.7 442.3 150.3 437.7 169.2 438.3C188 439 207 445 225.8 445.3C244.7 445.7 263.3 440.3 282.2 439C301 437.7 320 440.3 338.8 439.3C357.7 438.3 376.3 433.7 395.2 431.5C414 429.3 433 429.7 451.8 434C470.7 438.3 489.3 446.7 508.2 447.7C527 448.7 546 442.3 564.8 444.2C583.7 446 602.3 456 621.2 460C640 464 659 462 677.8 462.2C696.7 462.3 715.3 464.7 734.2 463.8C753 463 772 459 790.8 453C809.7 447 828.3 439 847.2 437.7C866 436.3 885 441.7 903.8 445.7C922.7 449.7 941.3 452.3 950.7 453.7L960 455L960 541L950.7 541C941.3 541 922.7 541 903.8 541C885 541 866 541 847.2 541C828.3 541 809.7 541 790.8 541C772 541 753 541 734.2 541C715.3 541 696.7 541 677.8 541C659 541 640 541 621.2 541C602.3 541 583.7 541 564.8 541C546 541 527 541 508.2 541C489.3 541 470.7 541 451.8 541C433 541 414 541 395.2 541C376.3 541 357.7 541 338.8 541C320 541 301 541 282.2 541C263.3 541 244.7 541 225.8 541C207 541 188 541 169.2 541C150.3 541 131.7 541 112.8 541C94 541 75 541 56.2 541C37.3 541 18.7 541 9.3 541L0 541Z" fill="#a539a5"></path><path d="M0 477L9.3 474.3C18.7 471.7 37.3 466.3 56.2 464.7C75 463 94 465 112.8 462.2C131.7 459.3 150.3 451.7 169.2 452C188 452.3 207 460.7 225.8 461C244.7 461.3 263.3 453.7 282.2 450.8C301 448 320 450 338.8 451.3C357.7 452.7 376.3 453.3 395.2 456.8C414 460.3 433 466.7 451.8 465.2C470.7 463.7 489.3 454.3 508.2 454C527 453.7 546 462.3 564.8 465.8C583.7 469.3 602.3 467.7 621.2 466.7C640 465.7 659 465.3 677.8 464.7C696.7 464 715.3 463 734.2 459.7C753 456.3 772 450.7 790.8 449.2C809.7 447.7 828.3 450.3 847.2 455.2C866 460 885 467 903.8 470.5C922.7 474 941.3 474 950.7 474L960 474L960 541L950.7 541C941.3 541 922.7 541 903.8 541C885 541 866 541 847.2 541C828.3 541 809.7 541 790.8 541C772 541 753 541 734.2 541C715.3 541 696.7 541 677.8 541C659 541 640 541 621.2 541C602.3 541 583.7 541 564.8 541C546 541 527 541 508.2 541C489.3 541 470.7 541 451.8 541C433 541 414 541 395.2 541C376.3 541 357.7 541 338.8 541C320 541 301 541 282.2 541C263.3 541 244.7 541 225.8 541C207 541 188 541 169.2 541C150.3 541 131.7 541 112.8 541C94 541 75 541 56.2 541C37.3 541 18.7 541 9.3 541L0 541Z" fill="#733f96"></path><path d="M0 486L9.3 484.5C18.7 483 37.3 480 56.2 476C75 472 94 467 112.8 465.7C131.7 464.3 150.3 466.7 169.2 470C188 473.3 207 477.7 225.8 477.8C244.7 478 263.3 474 282.2 473.8C301 473.7 320 477.3 338.8 477C357.7 476.7 376.3 472.3 395.2 472.3C414 472.3 433 476.7 451.8 477.2C470.7 477.7 489.3 474.3 508.2 473.5C527 472.7 546 474.3 564.8 477C583.7 479.7 602.3 483.3 621.2 480.8C640 478.3 659 469.7 677.8 470.3C696.7 471 715.3 481 734.2 483.5C753 486 772 481 790.8 478.2C809.7 475.3 828.3 474.7 847.2 472.5C866 470.3 885 466.7 903.8 465.8C922.7 465 941.3 467 950.7 468L960 469L960 541L950.7 541C941.3 541 922.7 541 903.8 541C885 541 866 541 847.2 541C828.3 541 809.7 541 790.8 541C772 541 753 541 734.2 541C715.3 541 696.7 541 677.8 541C659 541 640 541 621.2 541C602.3 541 583.7 541 564.8 541C546 541 527 541 508.2 541C489.3 541 470.7 541 451.8 541C433 541 414 541 395.2 541C376.3 541 357.7 541 338.8 541C320 541 301 541 282.2 541C263.3 541 244.7 541 225.8 541C207 541 188 541 169.2 541C150.3 541 131.7 541 112.8 541C94 541 75 541 56.2 541C37.3 541 18.7 541 9.3 541L0 541Z" fill="#483c7e"></path><path d="M0 500L9.3 497.8C18.7 495.7 37.3 491.3 56.2 488C75 484.7 94 482.3 112.8 485C131.7 487.7 150.3 495.3 169.2 498.7C188 502 207 501 225.8 497.2C244.7 493.3 263.3 486.7 282.2 484.7C301 482.7 320 485.3 338.8 485.3C357.7 485.3 376.3 482.7 395.2 484.7C414 486.7 433 493.3 451.8 493.5C470.7 493.7 489.3 487.3 508.2 486C527 484.7 546 488.3 564.8 490.5C583.7 492.7 602.3 493.3 621.2 495C640 496.7 659 499.3 677.8 497.3C696.7 495.3 715.3 488.7 734.2 488C753 487.3 772 492.7 790.8 493.8C809.7 495 828.3 492 847.2 491C866 490 885 491 903.8 492.8C922.7 494.7 941.3 497.3 950.7 498.7L960 500L960 541L950.7 541C941.3 541 922.7 541 903.8 541C885 541 866 541 847.2 541C828.3 541 809.7 541 790.8 541C772 541 753 541 734.2 541C715.3 541 696.7 541 677.8 541C659 541 640 541 621.2 541C602.3 541 583.7 541 564.8 541C546 541 527 541 508.2 541C489.3 541 470.7 541 451.8 541C433 541 414 541 395.2 541C376.3 541 357.7 541 338.8 541C320 541 301 541 282.2 541C263.3 541 244.7 541 225.8 541C207 541 188 541 169.2 541C150.3 541 131.7 541 112.8 541C94 541 75 541 56.2 541C37.3 541 18.7 541 9.3 541L0 541Z" fill="#283360"></path><path d="M0 503L9.3 504.7C18.7 506.3 37.3 509.7 56.2 509.2C75 508.7 94 504.3 112.8 504.3C131.7 504.3 150.3 508.7 169.2 507.8C188 507 207 501 225.8 499.5C244.7 498 263.3 501 282.2 501.7C301 502.3 320 500.7 338.8 500.3C357.7 500 376.3 501 395.2 501.7C414 502.3 433 502.7 451.8 502.3C470.7 502 489.3 501 508.2 502.2C527 503.3 546 506.7 564.8 506.5C583.7 506.3 602.3 502.7 621.2 501.5C640 500.3 659 501.7 677.8 503.3C696.7 505 715.3 507 734.2 508.5C753 510 772 511 790.8 511.2C809.7 511.3 828.3 510.7 847.2 511.2C866 511.7 885 513.3 903.8 513.7C922.7 514 941.3 513 950.7 512.5L960 512L960 541L950.7 541C941.3 541 922.7 541 903.8 541C885 541 866 541 847.2 541C828.3 541 809.7 541 790.8 541C772 541 753 541 734.2 541C715.3 541 696.7 541 677.8 541C659 541 640 541 621.2 541C602.3 541 583.7 541 564.8 541C546 541 527 541 508.2 541C489.3 541 470.7 541 451.8 541C433 541 414 541 395.2 541C376.3 541 357.7 541 338.8 541C320 541 301 541 282.2 541C263.3 541 244.7 541 225.8 541C207 541 188 541 169.2 541C150.3 541 131.7 541 112.8 541C94 541 75 541 56.2 541C37.3 541 18.7 541 9.3 541L0 541Z" fill="#19273f"></path><path d="M0 522L9.3 520.3C18.7 518.7 37.3 515.3 56.2 514.2C75 513 94 514 112.8 514.8C131.7 515.7 150.3 516.3 169.2 515.7C188 515 207 513 225.8 513.8C244.7 514.7 263.3 518.3 282.2 520.2C301 522 320 522 338.8 522.8C357.7 523.7 376.3 525.3 395.2 524.2C414 523 433 519 451.8 518.5C470.7 518 489.3 521 508.2 521.5C527 522 546 520 564.8 519.8C583.7 519.7 602.3 521.3 621.2 520.8C640 520.3 659 517.7 677.8 517.7C696.7 517.7 715.3 520.3 734.2 521.7C753 523 772 523 790.8 522.7C809.7 522.3 828.3 521.7 847.2 520.3C866 519 885 517 903.8 517.5C922.7 518 941.3 521 950.7 522.5L960 524L960 541L950.7 541C941.3 541 922.7 541 903.8 541C885 541 866 541 847.2 541C828.3 541 809.7 541 790.8 541C772 541 753 541 734.2 541C715.3 541 696.7 541 677.8 541C659 541 640 541 621.2 541C602.3 541 583.7 541 564.8 541C546 541 527 541 508.2 541C489.3 541 470.7 541 451.8 541C433 541 414 541 395.2 541C376.3 541 357.7 541 338.8 541C320 541 301 541 282.2 541C263.3 541 244.7 541 225.8 541C207 541 188 541 169.2 541C150.3 541 131.7 541 112.8 541C94 541 75 541 56.2 541C37.3 541 18.7 541 9.3 541L0 541Z" fill="#15191e"></path></svg>